<mxfile host="app.diagrams.net" modified="2023-09-13T19:40:26.578Z" agent="Mozilla/5.0 (Windows NT 10.0; Win64; x64) AppleWebKit/537.36 (KHTML, like Gecko) Chrome/115.0.0.0 Safari/537.36 OPR/101.0.0.0" version="21.7.2" etag="VpgOmQoH1JtHBeLqFn4E" type="github">
  <diagram name="PÃ¡gina-1" id="gizDyPV9ZRr-rGuPMwwK">
    <mxGraphModel>
      <root>
        <mxCell id="0" />
        <mxCell id="1" parent="0" />
      </root>
    </mxGraphModel>
  </diagram>
</mxfile>
